<mxfile host="app.diagrams.net" modified="2023-10-14T22:07:15.133Z" agent="Mozilla/5.0 (Windows NT 10.0; Win64; x64) AppleWebKit/537.36 (KHTML, like Gecko) Chrome/117.0.0.0 Safari/537.36 Edg/117.0.2045.60" etag="EGxN9SZ-nq0VzlaqbXZK" version="22.0.4" type="github">
  <diagram id="C5RBs43oDa-KdzZeNtuy" name="Page-1">
    <mxGraphModel dx="706" dy="792" grid="1" gridSize="10" guides="1" tooltips="1" connect="1" arrows="1" fold="1" page="1" pageScale="1" pageWidth="827" pageHeight="1169" math="0" shadow="0">
      <root>
        <mxCell id="WIyWlLk6GJQsqaUBKTNV-0" />
        <mxCell id="WIyWlLk6GJQsqaUBKTNV-1" parent="WIyWlLk6GJQsqaUBKTNV-0" />
        <mxCell id="GWNe11l4ak4aLc83pT_9-2" value="" style="edgeStyle=orthogonalEdgeStyle;rounded=0;orthogonalLoop=1;jettySize=auto;html=1;" edge="1" parent="WIyWlLk6GJQsqaUBKTNV-1" source="GWNe11l4ak4aLc83pT_9-0" target="GWNe11l4ak4aLc83pT_9-1">
          <mxGeometry relative="1" as="geometry" />
        </mxCell>
        <mxCell id="GWNe11l4ak4aLc83pT_9-0" value="inicio" style="ellipse;whiteSpace=wrap;html=1;" vertex="1" parent="WIyWlLk6GJQsqaUBKTNV-1">
          <mxGeometry x="200" y="10" width="160" height="80" as="geometry" />
        </mxCell>
        <mxCell id="GWNe11l4ak4aLc83pT_9-8" value="" style="edgeStyle=orthogonalEdgeStyle;rounded=0;orthogonalLoop=1;jettySize=auto;html=1;" edge="1" parent="WIyWlLk6GJQsqaUBKTNV-1" source="GWNe11l4ak4aLc83pT_9-1" target="GWNe11l4ak4aLc83pT_9-3">
          <mxGeometry relative="1" as="geometry" />
        </mxCell>
        <mxCell id="GWNe11l4ak4aLc83pT_9-1" value="declarar=cal1,cal2,cal3,cal4,cal5,prom,grupo,edad" style="rounded=1;whiteSpace=wrap;html=1;" vertex="1" parent="WIyWlLk6GJQsqaUBKTNV-1">
          <mxGeometry x="140" y="120" width="280" height="60" as="geometry" />
        </mxCell>
        <mxCell id="GWNe11l4ak4aLc83pT_9-9" value="" style="edgeStyle=orthogonalEdgeStyle;rounded=0;orthogonalLoop=1;jettySize=auto;html=1;" edge="1" parent="WIyWlLk6GJQsqaUBKTNV-1" source="GWNe11l4ak4aLc83pT_9-3" target="GWNe11l4ak4aLc83pT_9-5">
          <mxGeometry relative="1" as="geometry" />
        </mxCell>
        <mxCell id="GWNe11l4ak4aLc83pT_9-3" value="solicitar, cal1&amp;nbsp;" style="rounded=0;whiteSpace=wrap;html=1;" vertex="1" parent="WIyWlLk6GJQsqaUBKTNV-1">
          <mxGeometry x="220" y="200" width="120" height="60" as="geometry" />
        </mxCell>
        <mxCell id="GWNe11l4ak4aLc83pT_9-11" value="" style="edgeStyle=orthogonalEdgeStyle;rounded=0;orthogonalLoop=1;jettySize=auto;html=1;" edge="1" parent="WIyWlLk6GJQsqaUBKTNV-1" source="GWNe11l4ak4aLc83pT_9-4" target="GWNe11l4ak4aLc83pT_9-7">
          <mxGeometry relative="1" as="geometry" />
        </mxCell>
        <mxCell id="GWNe11l4ak4aLc83pT_9-4" value="solicitar, cal2&amp;nbsp;" style="rounded=0;whiteSpace=wrap;html=1;" vertex="1" parent="WIyWlLk6GJQsqaUBKTNV-1">
          <mxGeometry x="220" y="360" width="120" height="60" as="geometry" />
        </mxCell>
        <mxCell id="GWNe11l4ak4aLc83pT_9-10" value="" style="edgeStyle=orthogonalEdgeStyle;rounded=0;orthogonalLoop=1;jettySize=auto;html=1;" edge="1" parent="WIyWlLk6GJQsqaUBKTNV-1" source="GWNe11l4ak4aLc83pT_9-5" target="GWNe11l4ak4aLc83pT_9-4">
          <mxGeometry relative="1" as="geometry" />
        </mxCell>
        <mxCell id="GWNe11l4ak4aLc83pT_9-5" value="leer cal1&amp;nbsp;" style="rounded=1;whiteSpace=wrap;html=1;" vertex="1" parent="WIyWlLk6GJQsqaUBKTNV-1">
          <mxGeometry x="220" y="280" width="120" height="60" as="geometry" />
        </mxCell>
        <mxCell id="GWNe11l4ak4aLc83pT_9-20" value="" style="edgeStyle=orthogonalEdgeStyle;rounded=0;orthogonalLoop=1;jettySize=auto;html=1;" edge="1" parent="WIyWlLk6GJQsqaUBKTNV-1" source="GWNe11l4ak4aLc83pT_9-7" target="GWNe11l4ak4aLc83pT_9-16">
          <mxGeometry relative="1" as="geometry" />
        </mxCell>
        <mxCell id="GWNe11l4ak4aLc83pT_9-7" value="leer cal2" style="rounded=1;whiteSpace=wrap;html=1;" vertex="1" parent="WIyWlLk6GJQsqaUBKTNV-1">
          <mxGeometry x="220" y="440" width="120" height="60" as="geometry" />
        </mxCell>
        <mxCell id="GWNe11l4ak4aLc83pT_9-25" value="" style="edgeStyle=orthogonalEdgeStyle;rounded=0;orthogonalLoop=1;jettySize=auto;html=1;" edge="1" parent="WIyWlLk6GJQsqaUBKTNV-1" source="GWNe11l4ak4aLc83pT_9-12" target="GWNe11l4ak4aLc83pT_9-17">
          <mxGeometry relative="1" as="geometry" />
        </mxCell>
        <mxCell id="GWNe11l4ak4aLc83pT_9-12" value="solicitar, cal5" style="rounded=0;whiteSpace=wrap;html=1;" vertex="1" parent="WIyWlLk6GJQsqaUBKTNV-1">
          <mxGeometry x="220" y="840" width="120" height="60" as="geometry" />
        </mxCell>
        <mxCell id="GWNe11l4ak4aLc83pT_9-23" value="" style="edgeStyle=orthogonalEdgeStyle;rounded=0;orthogonalLoop=1;jettySize=auto;html=1;" edge="1" parent="WIyWlLk6GJQsqaUBKTNV-1" source="GWNe11l4ak4aLc83pT_9-15" target="GWNe11l4ak4aLc83pT_9-18">
          <mxGeometry relative="1" as="geometry" />
        </mxCell>
        <mxCell id="GWNe11l4ak4aLc83pT_9-15" value="solicitar, cal4" style="rounded=0;whiteSpace=wrap;html=1;" vertex="1" parent="WIyWlLk6GJQsqaUBKTNV-1">
          <mxGeometry x="220" y="680" width="120" height="60" as="geometry" />
        </mxCell>
        <mxCell id="GWNe11l4ak4aLc83pT_9-21" value="" style="edgeStyle=orthogonalEdgeStyle;rounded=0;orthogonalLoop=1;jettySize=auto;html=1;" edge="1" parent="WIyWlLk6GJQsqaUBKTNV-1" source="GWNe11l4ak4aLc83pT_9-16" target="GWNe11l4ak4aLc83pT_9-19">
          <mxGeometry relative="1" as="geometry" />
        </mxCell>
        <mxCell id="GWNe11l4ak4aLc83pT_9-16" value="solicitar, cal3" style="rounded=0;whiteSpace=wrap;html=1;" vertex="1" parent="WIyWlLk6GJQsqaUBKTNV-1">
          <mxGeometry x="220" y="520" width="120" height="60" as="geometry" />
        </mxCell>
        <mxCell id="GWNe11l4ak4aLc83pT_9-27" value="" style="edgeStyle=orthogonalEdgeStyle;rounded=0;orthogonalLoop=1;jettySize=auto;html=1;" edge="1" parent="WIyWlLk6GJQsqaUBKTNV-1" source="GWNe11l4ak4aLc83pT_9-17" target="GWNe11l4ak4aLc83pT_9-26">
          <mxGeometry relative="1" as="geometry" />
        </mxCell>
        <mxCell id="GWNe11l4ak4aLc83pT_9-17" value="leer cal5" style="rounded=1;whiteSpace=wrap;html=1;" vertex="1" parent="WIyWlLk6GJQsqaUBKTNV-1">
          <mxGeometry x="220" y="920" width="120" height="60" as="geometry" />
        </mxCell>
        <mxCell id="GWNe11l4ak4aLc83pT_9-24" value="" style="edgeStyle=orthogonalEdgeStyle;rounded=0;orthogonalLoop=1;jettySize=auto;html=1;" edge="1" parent="WIyWlLk6GJQsqaUBKTNV-1" source="GWNe11l4ak4aLc83pT_9-18" target="GWNe11l4ak4aLc83pT_9-12">
          <mxGeometry relative="1" as="geometry" />
        </mxCell>
        <mxCell id="GWNe11l4ak4aLc83pT_9-18" value="leer cal4" style="rounded=1;whiteSpace=wrap;html=1;" vertex="1" parent="WIyWlLk6GJQsqaUBKTNV-1">
          <mxGeometry x="220" y="760" width="120" height="60" as="geometry" />
        </mxCell>
        <mxCell id="GWNe11l4ak4aLc83pT_9-22" value="" style="edgeStyle=orthogonalEdgeStyle;rounded=0;orthogonalLoop=1;jettySize=auto;html=1;" edge="1" parent="WIyWlLk6GJQsqaUBKTNV-1" source="GWNe11l4ak4aLc83pT_9-19" target="GWNe11l4ak4aLc83pT_9-15">
          <mxGeometry relative="1" as="geometry" />
        </mxCell>
        <mxCell id="GWNe11l4ak4aLc83pT_9-19" value="leer cal3" style="rounded=1;whiteSpace=wrap;html=1;" vertex="1" parent="WIyWlLk6GJQsqaUBKTNV-1">
          <mxGeometry x="220" y="600" width="120" height="60" as="geometry" />
        </mxCell>
        <mxCell id="GWNe11l4ak4aLc83pT_9-32" value="" style="edgeStyle=orthogonalEdgeStyle;rounded=0;orthogonalLoop=1;jettySize=auto;html=1;" edge="1" parent="WIyWlLk6GJQsqaUBKTNV-1" source="GWNe11l4ak4aLc83pT_9-26" target="GWNe11l4ak4aLc83pT_9-31">
          <mxGeometry relative="1" as="geometry" />
        </mxCell>
        <mxCell id="GWNe11l4ak4aLc83pT_9-26" value="solicitar, grupo" style="rounded=0;whiteSpace=wrap;html=1;" vertex="1" parent="WIyWlLk6GJQsqaUBKTNV-1">
          <mxGeometry x="220" y="1000" width="120" height="60" as="geometry" />
        </mxCell>
        <mxCell id="GWNe11l4ak4aLc83pT_9-34" value="" style="edgeStyle=orthogonalEdgeStyle;rounded=0;orthogonalLoop=1;jettySize=auto;html=1;" edge="1" parent="WIyWlLk6GJQsqaUBKTNV-1" source="GWNe11l4ak4aLc83pT_9-28" target="GWNe11l4ak4aLc83pT_9-30">
          <mxGeometry relative="1" as="geometry" />
        </mxCell>
        <mxCell id="GWNe11l4ak4aLc83pT_9-28" value="solicitar, edad" style="rounded=0;whiteSpace=wrap;html=1;" vertex="1" parent="WIyWlLk6GJQsqaUBKTNV-1">
          <mxGeometry x="220" y="1169" width="120" height="60" as="geometry" />
        </mxCell>
        <mxCell id="GWNe11l4ak4aLc83pT_9-37" value="" style="edgeStyle=orthogonalEdgeStyle;rounded=0;orthogonalLoop=1;jettySize=auto;html=1;" edge="1" parent="WIyWlLk6GJQsqaUBKTNV-1" source="GWNe11l4ak4aLc83pT_9-29" target="GWNe11l4ak4aLc83pT_9-36">
          <mxGeometry relative="1" as="geometry" />
        </mxCell>
        <mxCell id="GWNe11l4ak4aLc83pT_9-29" value="prom=(cal1+cal2+cal3+cal4+cal5)/5" style="rounded=0;whiteSpace=wrap;html=1;" vertex="1" parent="WIyWlLk6GJQsqaUBKTNV-1">
          <mxGeometry x="185" y="1340" width="190" height="60" as="geometry" />
        </mxCell>
        <mxCell id="GWNe11l4ak4aLc83pT_9-35" value="" style="edgeStyle=orthogonalEdgeStyle;rounded=0;orthogonalLoop=1;jettySize=auto;html=1;" edge="1" parent="WIyWlLk6GJQsqaUBKTNV-1" source="GWNe11l4ak4aLc83pT_9-30" target="GWNe11l4ak4aLc83pT_9-29">
          <mxGeometry relative="1" as="geometry" />
        </mxCell>
        <mxCell id="GWNe11l4ak4aLc83pT_9-30" value="leer edad" style="rounded=1;whiteSpace=wrap;html=1;" vertex="1" parent="WIyWlLk6GJQsqaUBKTNV-1">
          <mxGeometry x="220" y="1250" width="120" height="60" as="geometry" />
        </mxCell>
        <mxCell id="GWNe11l4ak4aLc83pT_9-33" value="" style="edgeStyle=orthogonalEdgeStyle;rounded=0;orthogonalLoop=1;jettySize=auto;html=1;" edge="1" parent="WIyWlLk6GJQsqaUBKTNV-1" source="GWNe11l4ak4aLc83pT_9-31" target="GWNe11l4ak4aLc83pT_9-28">
          <mxGeometry relative="1" as="geometry" />
        </mxCell>
        <mxCell id="GWNe11l4ak4aLc83pT_9-31" value="leer, grupo" style="rounded=1;whiteSpace=wrap;html=1;" vertex="1" parent="WIyWlLk6GJQsqaUBKTNV-1">
          <mxGeometry x="220" y="1080" width="120" height="60" as="geometry" />
        </mxCell>
        <mxCell id="GWNe11l4ak4aLc83pT_9-40" value="" style="edgeStyle=orthogonalEdgeStyle;rounded=0;orthogonalLoop=1;jettySize=auto;html=1;" edge="1" parent="WIyWlLk6GJQsqaUBKTNV-1" source="GWNe11l4ak4aLc83pT_9-36" target="GWNe11l4ak4aLc83pT_9-39">
          <mxGeometry relative="1" as="geometry" />
        </mxCell>
        <mxCell id="GWNe11l4ak4aLc83pT_9-43" value="" style="edgeStyle=orthogonalEdgeStyle;rounded=0;orthogonalLoop=1;jettySize=auto;html=1;" edge="1" parent="WIyWlLk6GJQsqaUBKTNV-1" source="GWNe11l4ak4aLc83pT_9-36" target="GWNe11l4ak4aLc83pT_9-38">
          <mxGeometry relative="1" as="geometry" />
        </mxCell>
        <mxCell id="GWNe11l4ak4aLc83pT_9-36" value="si para 7" style="rhombus;whiteSpace=wrap;html=1;" vertex="1" parent="WIyWlLk6GJQsqaUBKTNV-1">
          <mxGeometry x="230" y="1430" width="100" height="100" as="geometry" />
        </mxCell>
        <mxCell id="GWNe11l4ak4aLc83pT_9-45" value="" style="edgeStyle=orthogonalEdgeStyle;rounded=0;orthogonalLoop=1;jettySize=auto;html=1;" edge="1" parent="WIyWlLk6GJQsqaUBKTNV-1" source="GWNe11l4ak4aLc83pT_9-38" target="GWNe11l4ak4aLc83pT_9-44">
          <mxGeometry relative="1" as="geometry" />
        </mxCell>
        <mxCell id="GWNe11l4ak4aLc83pT_9-38" value="si" style="text;html=1;strokeColor=none;fillColor=none;align=center;verticalAlign=middle;whiteSpace=wrap;rounded=0;" vertex="1" parent="WIyWlLk6GJQsqaUBKTNV-1">
          <mxGeometry x="260" y="1550" width="40" height="20" as="geometry" />
        </mxCell>
        <mxCell id="GWNe11l4ak4aLc83pT_9-42" value="" style="edgeStyle=orthogonalEdgeStyle;rounded=0;orthogonalLoop=1;jettySize=auto;html=1;" edge="1" parent="WIyWlLk6GJQsqaUBKTNV-1" source="GWNe11l4ak4aLc83pT_9-39" target="GWNe11l4ak4aLc83pT_9-41">
          <mxGeometry relative="1" as="geometry" />
        </mxCell>
        <mxCell id="GWNe11l4ak4aLc83pT_9-39" value="no" style="text;html=1;strokeColor=none;fillColor=none;align=center;verticalAlign=middle;whiteSpace=wrap;rounded=0;" vertex="1" parent="WIyWlLk6GJQsqaUBKTNV-1">
          <mxGeometry x="360" y="1465" width="36" height="30" as="geometry" />
        </mxCell>
        <mxCell id="GWNe11l4ak4aLc83pT_9-49" style="edgeStyle=orthogonalEdgeStyle;rounded=0;orthogonalLoop=1;jettySize=auto;html=1;exitX=0.5;exitY=1;exitDx=0;exitDy=0;" edge="1" parent="WIyWlLk6GJQsqaUBKTNV-1" source="GWNe11l4ak4aLc83pT_9-41" target="GWNe11l4ak4aLc83pT_9-46">
          <mxGeometry relative="1" as="geometry" />
        </mxCell>
        <mxCell id="GWNe11l4ak4aLc83pT_9-41" value="no competente &amp;lt;=4" style="rounded=0;whiteSpace=wrap;html=1;" vertex="1" parent="WIyWlLk6GJQsqaUBKTNV-1">
          <mxGeometry x="414" y="1460" width="130" height="40" as="geometry" />
        </mxCell>
        <mxCell id="GWNe11l4ak4aLc83pT_9-47" style="edgeStyle=orthogonalEdgeStyle;rounded=0;orthogonalLoop=1;jettySize=auto;html=1;exitX=0.5;exitY=1;exitDx=0;exitDy=0;" edge="1" parent="WIyWlLk6GJQsqaUBKTNV-1" source="GWNe11l4ak4aLc83pT_9-44" target="GWNe11l4ak4aLc83pT_9-46">
          <mxGeometry relative="1" as="geometry" />
        </mxCell>
        <mxCell id="GWNe11l4ak4aLc83pT_9-44" value="Eres competente&amp;nbsp;" style="rounded=0;whiteSpace=wrap;html=1;" vertex="1" parent="WIyWlLk6GJQsqaUBKTNV-1">
          <mxGeometry x="210" y="1580" width="140" height="30" as="geometry" />
        </mxCell>
        <mxCell id="GWNe11l4ak4aLc83pT_9-46" value="Fin" style="ellipse;whiteSpace=wrap;html=1;" vertex="1" parent="WIyWlLk6GJQsqaUBKTNV-1">
          <mxGeometry x="303" y="1680" width="150" height="60" as="geometry" />
        </mxCell>
      </root>
    </mxGraphModel>
  </diagram>
</mxfile>
